<mxfile host="app.diagrams.net" agent="Mozilla/5.0 (Macintosh; Intel Mac OS X 10_15_7) AppleWebKit/537.36 (KHTML, like Gecko) Chrome/128.0.0.0 Safari/537.36" version="25.0.3">
  <diagram name="第 1 页" id="HLJRhyLLiGfdB7AIX1Ct">
    <mxGraphModel dx="906" dy="583" grid="1" gridSize="10" guides="1" tooltips="1" connect="1" arrows="1" fold="1" page="1" pageScale="1" pageWidth="827" pageHeight="1169" math="0" shadow="0">
      <root>
        <mxCell id="0" />
        <mxCell id="1" parent="0" />
        <mxCell id="i5w2QQlCM6NQUI5eI2cH-1" value="frame" style="shape=umlFrame;whiteSpace=wrap;html=1;pointerEvents=0;" vertex="1" parent="1">
          <mxGeometry x="150" y="60" width="420" height="500" as="geometry" />
        </mxCell>
        <mxCell id="i5w2QQlCM6NQUI5eI2cH-2" value="Custom" style="shape=umlActor;verticalLabelPosition=bottom;verticalAlign=top;html=1;" vertex="1" parent="1">
          <mxGeometry x="50" y="260" width="30" height="60" as="geometry" />
        </mxCell>
        <mxCell id="i5w2QQlCM6NQUI5eI2cH-3" value="Actor" style="shape=umlActor;verticalLabelPosition=bottom;verticalAlign=top;html=1;" vertex="1" parent="1">
          <mxGeometry x="640" y="260" width="30" height="60" as="geometry" />
        </mxCell>
        <mxCell id="i5w2QQlCM6NQUI5eI2cH-5" value="&lt;p style=&quot;margin: 0px; font-variant-numeric: normal; font-variant-east-asian: normal; font-variant-alternates: normal; font-size-adjust: none; font-kerning: auto; font-optical-sizing: auto; font-feature-settings: normal; font-variation-settings: normal; font-variant-position: normal; font-stretch: normal; line-height: normal; font-family: &amp;quot;Times New Roman&amp;quot;; text-align: start;&quot; class=&quot;p1&quot;&gt;browses Catalog&lt;/p&gt;" style="ellipse;whiteSpace=wrap;html=1;" vertex="1" parent="1">
          <mxGeometry x="200" y="460" width="110" height="50" as="geometry" />
        </mxCell>
        <mxCell id="i5w2QQlCM6NQUI5eI2cH-7" value="&lt;p style=&quot;margin: 0px; font-variant-numeric: normal; font-variant-east-asian: normal; font-variant-alternates: normal; font-size-adjust: none; font-kerning: auto; font-optical-sizing: auto; font-feature-settings: normal; font-variation-settings: normal; font-variant-position: normal; font-stretch: normal; line-height: normal; font-family: &amp;quot;Times New Roman&amp;quot;; text-align: start;&quot; class=&quot;p1&quot;&gt;&lt;span style=&quot;font-family: Helvetica;&quot; class=&quot;Apple-converted-space&quot;&gt;&amp;nbsp;&lt;/span&gt;&lt;span style=&quot;font-family: Helvetica;&quot;&gt;selects items to buy&lt;/span&gt;&lt;br&gt;&lt;/p&gt;" style="ellipse;whiteSpace=wrap;html=1;" vertex="1" parent="1">
          <mxGeometry x="195" y="350" width="120" height="50" as="geometry" />
        </mxCell>
        <mxCell id="i5w2QQlCM6NQUI5eI2cH-8" value="&lt;p style=&quot;margin: 0px; font-variant-numeric: normal; font-variant-east-asian: normal; font-variant-alternates: normal; font-size-adjust: none; font-kerning: auto; font-optical-sizing: auto; font-feature-settings: normal; font-variation-settings: normal; font-variant-position: normal; font-stretch: normal; line-height: normal; font-family: &amp;quot;Times New Roman&amp;quot;; text-align: start;&quot; class=&quot;p1&quot;&gt;check out&lt;/p&gt;" style="ellipse;whiteSpace=wrap;html=1;" vertex="1" parent="1">
          <mxGeometry x="200" y="230" width="110" height="50" as="geometry" />
        </mxCell>
        <mxCell id="i5w2QQlCM6NQUI5eI2cH-9" value="fill shipping info" style="ellipse;whiteSpace=wrap;html=1;" vertex="1" parent="1">
          <mxGeometry x="200" y="110" width="110" height="50" as="geometry" />
        </mxCell>
        <mxCell id="i5w2QQlCM6NQUI5eI2cH-10" value="present full price info" style="ellipse;whiteSpace=wrap;html=1;" vertex="1" parent="1">
          <mxGeometry x="380" y="130" width="110" height="50" as="geometry" />
        </mxCell>
        <mxCell id="i5w2QQlCM6NQUI5eI2cH-11" value="&lt;p style=&quot;margin: 0px; font-variant-numeric: normal; font-variant-east-asian: normal; font-variant-alternates: normal; font-size-adjust: none; font-kerning: auto; font-optical-sizing: auto; font-feature-settings: normal; font-variation-settings: normal; font-variant-position: normal; font-stretch: normal; line-height: normal; font-family: &amp;quot;Times New Roman&amp;quot;; text-align: start;&quot; class=&quot;p1&quot;&gt;authorizes purchase&lt;/p&gt;" style="ellipse;whiteSpace=wrap;html=1;" vertex="1" parent="1">
          <mxGeometry x="380" y="230" width="110" height="50" as="geometry" />
        </mxCell>
        <mxCell id="i5w2QQlCM6NQUI5eI2cH-12" value="confirm sale" style="ellipse;whiteSpace=wrap;html=1;" vertex="1" parent="1">
          <mxGeometry x="380" y="340" width="110" height="50" as="geometry" />
        </mxCell>
        <mxCell id="i5w2QQlCM6NQUI5eI2cH-13" value="send confirm email" style="ellipse;whiteSpace=wrap;html=1;" vertex="1" parent="1">
          <mxGeometry x="380" y="450" width="110" height="50" as="geometry" />
        </mxCell>
        <mxCell id="i5w2QQlCM6NQUI5eI2cH-15" value="" style="endArrow=open;endFill=1;endSize=12;html=1;rounded=0;exitX=1;exitY=0.3333333333333333;exitDx=0;exitDy=0;exitPerimeter=0;entryX=0.033;entryY=0.7;entryDx=0;entryDy=0;entryPerimeter=0;" edge="1" parent="1" source="i5w2QQlCM6NQUI5eI2cH-2" target="i5w2QQlCM6NQUI5eI2cH-7">
          <mxGeometry width="160" relative="1" as="geometry">
            <mxPoint x="90" y="280" as="sourcePoint" />
            <mxPoint x="230" y="289.5" as="targetPoint" />
          </mxGeometry>
        </mxCell>
        <mxCell id="i5w2QQlCM6NQUI5eI2cH-16" value="" style="endArrow=open;endFill=1;endSize=12;html=1;rounded=0;entryX=0;entryY=0.5;entryDx=0;entryDy=0;" edge="1" parent="1" target="i5w2QQlCM6NQUI5eI2cH-5">
          <mxGeometry width="160" relative="1" as="geometry">
            <mxPoint x="80" y="280" as="sourcePoint" />
            <mxPoint x="214" y="145" as="targetPoint" />
          </mxGeometry>
        </mxCell>
        <mxCell id="i5w2QQlCM6NQUI5eI2cH-17" value="" style="endArrow=open;endFill=1;endSize=12;html=1;rounded=0;entryX=0;entryY=0.5;entryDx=0;entryDy=0;" edge="1" parent="1" target="i5w2QQlCM6NQUI5eI2cH-8">
          <mxGeometry width="160" relative="1" as="geometry">
            <mxPoint x="80" y="280" as="sourcePoint" />
            <mxPoint x="210" y="215" as="targetPoint" />
          </mxGeometry>
        </mxCell>
        <mxCell id="i5w2QQlCM6NQUI5eI2cH-18" value="" style="endArrow=open;endFill=1;endSize=12;html=1;rounded=0;" edge="1" parent="1" target="i5w2QQlCM6NQUI5eI2cH-9">
          <mxGeometry width="160" relative="1" as="geometry">
            <mxPoint x="80" y="280" as="sourcePoint" />
            <mxPoint x="210" y="320" as="targetPoint" />
          </mxGeometry>
        </mxCell>
        <mxCell id="i5w2QQlCM6NQUI5eI2cH-19" value="" style="endArrow=open;endFill=1;endSize=12;html=1;rounded=0;exitX=0;exitY=0.3333333333333333;exitDx=0;exitDy=0;exitPerimeter=0;entryX=1;entryY=0.5;entryDx=0;entryDy=0;" edge="1" parent="1" source="i5w2QQlCM6NQUI5eI2cH-3" target="i5w2QQlCM6NQUI5eI2cH-10">
          <mxGeometry width="160" relative="1" as="geometry">
            <mxPoint x="670" y="150" as="sourcePoint" />
            <mxPoint x="830" y="150" as="targetPoint" />
          </mxGeometry>
        </mxCell>
        <mxCell id="i5w2QQlCM6NQUI5eI2cH-20" value="" style="endArrow=open;endFill=1;endSize=12;html=1;rounded=0;entryX=1;entryY=0.5;entryDx=0;entryDy=0;" edge="1" parent="1" target="i5w2QQlCM6NQUI5eI2cH-11">
          <mxGeometry width="160" relative="1" as="geometry">
            <mxPoint x="640" y="280" as="sourcePoint" />
            <mxPoint x="520" y="215" as="targetPoint" />
          </mxGeometry>
        </mxCell>
        <mxCell id="i5w2QQlCM6NQUI5eI2cH-21" value="" style="endArrow=open;endFill=1;endSize=12;html=1;rounded=0;entryX=1;entryY=0.5;entryDx=0;entryDy=0;" edge="1" parent="1" target="i5w2QQlCM6NQUI5eI2cH-12">
          <mxGeometry width="160" relative="1" as="geometry">
            <mxPoint x="640" y="280" as="sourcePoint" />
            <mxPoint x="520" y="295" as="targetPoint" />
          </mxGeometry>
        </mxCell>
        <mxCell id="i5w2QQlCM6NQUI5eI2cH-22" value="" style="endArrow=open;endFill=1;endSize=12;html=1;rounded=0;entryX=1;entryY=0.5;entryDx=0;entryDy=0;" edge="1" parent="1" target="i5w2QQlCM6NQUI5eI2cH-13">
          <mxGeometry width="160" relative="1" as="geometry">
            <mxPoint x="640" y="280" as="sourcePoint" />
            <mxPoint x="520" y="375" as="targetPoint" />
          </mxGeometry>
        </mxCell>
        <mxCell id="i5w2QQlCM6NQUI5eI2cH-24" value="Extends" style="endArrow=block;endSize=16;endFill=0;html=1;rounded=0;exitX=0.5;exitY=0;exitDx=0;exitDy=0;entryX=0.5;entryY=1;entryDx=0;entryDy=0;" edge="1" parent="1" source="i5w2QQlCM6NQUI5eI2cH-5" target="i5w2QQlCM6NQUI5eI2cH-7">
          <mxGeometry width="160" relative="1" as="geometry">
            <mxPoint x="250" y="180" as="sourcePoint" />
            <mxPoint x="410" y="180" as="targetPoint" />
          </mxGeometry>
        </mxCell>
        <mxCell id="i5w2QQlCM6NQUI5eI2cH-25" value="Extends" style="endArrow=block;endSize=16;endFill=0;html=1;rounded=0;exitX=0.5;exitY=0;exitDx=0;exitDy=0;entryX=0.5;entryY=1;entryDx=0;entryDy=0;" edge="1" parent="1" source="i5w2QQlCM6NQUI5eI2cH-7" target="i5w2QQlCM6NQUI5eI2cH-8">
          <mxGeometry width="160" relative="1" as="geometry">
            <mxPoint x="265" y="460" as="sourcePoint" />
            <mxPoint x="265" y="430" as="targetPoint" />
          </mxGeometry>
        </mxCell>
        <mxCell id="i5w2QQlCM6NQUI5eI2cH-26" value="Extends" style="endArrow=block;endSize=16;endFill=0;html=1;rounded=0;exitX=0.5;exitY=0;exitDx=0;exitDy=0;entryX=0.5;entryY=1;entryDx=0;entryDy=0;" edge="1" parent="1" source="i5w2QQlCM6NQUI5eI2cH-8" target="i5w2QQlCM6NQUI5eI2cH-9">
          <mxGeometry x="-0.0035" width="160" relative="1" as="geometry">
            <mxPoint x="265" y="380" as="sourcePoint" />
            <mxPoint x="265" y="340" as="targetPoint" />
            <mxPoint as="offset" />
          </mxGeometry>
        </mxCell>
        <mxCell id="i5w2QQlCM6NQUI5eI2cH-28" value="Extends" style="endArrow=block;endSize=16;endFill=0;html=1;rounded=0;exitX=0.945;exitY=0.24;exitDx=0;exitDy=0;entryX=0;entryY=0.5;entryDx=0;entryDy=0;exitPerimeter=0;" edge="1" parent="1" source="i5w2QQlCM6NQUI5eI2cH-8" target="i5w2QQlCM6NQUI5eI2cH-10">
          <mxGeometry x="-0.0035" width="160" relative="1" as="geometry">
            <mxPoint x="265" y="240" as="sourcePoint" />
            <mxPoint x="265" y="170" as="targetPoint" />
            <mxPoint as="offset" />
          </mxGeometry>
        </mxCell>
        <mxCell id="i5w2QQlCM6NQUI5eI2cH-30" value="Extends" style="endArrow=block;endSize=16;endFill=0;html=1;rounded=0;exitX=0.5;exitY=1;exitDx=0;exitDy=0;entryX=0.5;entryY=0;entryDx=0;entryDy=0;" edge="1" parent="1" source="i5w2QQlCM6NQUI5eI2cH-11" target="i5w2QQlCM6NQUI5eI2cH-12">
          <mxGeometry x="-0.0035" width="160" relative="1" as="geometry">
            <mxPoint x="314" y="252" as="sourcePoint" />
            <mxPoint x="390" y="125" as="targetPoint" />
            <mxPoint as="offset" />
          </mxGeometry>
        </mxCell>
        <mxCell id="i5w2QQlCM6NQUI5eI2cH-31" value="Extends" style="endArrow=block;endSize=16;endFill=0;html=1;rounded=0;exitX=0.5;exitY=1;exitDx=0;exitDy=0;entryX=0.5;entryY=0;entryDx=0;entryDy=0;" edge="1" parent="1" source="i5w2QQlCM6NQUI5eI2cH-12" target="i5w2QQlCM6NQUI5eI2cH-13">
          <mxGeometry x="-0.0035" width="160" relative="1" as="geometry">
            <mxPoint x="445" y="290" as="sourcePoint" />
            <mxPoint x="445" y="350" as="targetPoint" />
            <mxPoint as="offset" />
          </mxGeometry>
        </mxCell>
      </root>
    </mxGraphModel>
  </diagram>
</mxfile>
